<svg width="134" height="27" viewBox="0 0 134 27" fill="none" xmlns="http://www.w3.org/2000/svg">
  <g opacity="0.85">
    <path d="M19.8757 6.89094C20.8464 5.69591 22.7467 5.99986 23.2963 7.43804L26.4211 15.6156C26.9707 17.0538 25.7573 18.5476 24.237 18.3044L15.5926 16.9218C14.0723 16.6787 13.3854 14.8809 14.3561 13.6859L19.8757 6.89094Z" fill="white" fill-opacity="0.78"/>
    <path d="M9.90651 5.53784C10.3934 4.07724 12.2788 3.6914 13.3003 4.84332L21.6087 14.2127C22.6302 15.3646 22.0217 17.1904 20.5133 17.499L8.24499 20.0097C6.73665 20.3184 5.45978 18.8785 5.94663 17.4179L9.90651 5.53784Z" fill="white"/>
    <path opacity="0.9" d="M44.0128 10.5071H41.527C41.4938 10.2519 41.4259 10.0215 41.3232 9.81605C41.2204 9.61056 41.0845 9.4349 40.9155 9.28906C40.7464 9.14323 40.5459 9.0322 40.3139 8.95597C40.0852 8.87642 39.8317 8.83665 39.5533 8.83665C39.0594 8.83665 38.6335 8.95762 38.2756 9.19957C37.9209 9.44152 37.6475 9.79119 37.4553 10.2486C37.2663 10.706 37.1719 11.2595 37.1719 11.9091C37.1719 12.5852 37.268 13.152 37.4602 13.6094C37.6558 14.0634 37.9292 14.4065 38.2805 14.6385C38.6352 14.8672 39.0545 14.9815 39.5384 14.9815C39.8101 14.9815 40.0571 14.9467 40.2791 14.8771C40.5045 14.8075 40.7017 14.7064 40.8707 14.5739C41.0431 14.438 41.1839 14.2739 41.2933 14.0817C41.406 13.8861 41.4839 13.6657 41.527 13.4205L44.0128 13.4354C43.9697 13.8861 43.8388 14.3303 43.62 14.7678C43.4046 15.2053 43.108 15.6046 42.7301 15.9659C42.3523 16.3239 41.8916 16.6089 41.348 16.821C40.8078 17.0331 40.188 17.1392 39.4886 17.1392C38.5672 17.1392 37.742 16.937 37.0128 16.5327C36.2869 16.125 35.7135 15.5317 35.2926 14.7528C34.8717 13.974 34.6612 13.026 34.6612 11.9091C34.6612 10.7888 34.875 9.83925 35.3026 9.06037C35.7301 8.28149 36.3085 7.68987 37.0376 7.28551C37.7668 6.88115 38.5838 6.67898 39.4886 6.67898C40.1051 6.67898 40.6752 6.76515 41.1989 6.9375C41.7225 7.10653 42.1832 7.35511 42.581 7.68324C42.9787 8.00805 43.3018 8.40743 43.5504 8.88139C43.799 9.35535 43.9531 9.89725 44.0128 10.5071ZM48.9856 17.1442C48.1835 17.1442 47.4941 16.9801 46.9174 16.652C46.344 16.3205 45.9016 15.8598 45.59 15.2699C45.2818 14.6766 45.1277 13.9889 45.1277 13.2067C45.1277 12.4212 45.2818 11.7334 45.59 11.1435C45.9016 10.5502 46.344 10.0895 46.9174 9.76136C47.4941 9.42992 48.1835 9.2642 48.9856 9.2642C49.7877 9.2642 50.4754 9.42992 51.0488 9.76136C51.6255 10.0895 52.068 10.5502 52.3762 11.1435C52.6878 11.7334 52.8436 12.4212 52.8436 13.2067C52.8436 13.9889 52.6878 14.6766 52.3762 15.2699C52.068 15.8598 51.6255 16.3205 51.0488 16.652C50.4754 16.9801 49.7877 17.1442 48.9856 17.1442ZM49.0005 15.3097C49.2922 15.3097 49.5391 15.2202 49.7413 15.0412C49.9435 14.8622 50.0976 14.6136 50.2037 14.2955C50.313 13.9773 50.3677 13.6094 50.3677 13.1918C50.3677 12.7675 50.313 12.3963 50.2037 12.0781C50.0976 11.7599 49.9435 11.5114 49.7413 11.3324C49.5391 11.1534 49.2922 11.0639 49.0005 11.0639C48.6989 11.0639 48.4437 11.1534 48.2349 11.3324C48.0294 11.5114 47.872 11.7599 47.7626 12.0781C47.6565 12.3963 47.6035 12.7675 47.6035 13.1918C47.6035 13.6094 47.6565 13.9773 47.7626 14.2955C47.872 14.6136 48.0294 14.8622 48.2349 15.0412C48.4437 15.2202 48.6989 15.3097 49.0005 15.3097ZM54.089 17V9.36364H56.4505V10.7557H56.53C56.6692 10.2519 56.8962 9.87737 57.2111 9.6321C57.526 9.38352 57.8922 9.25923 58.3098 9.25923C58.4225 9.25923 58.5385 9.26752 58.6578 9.28409C58.7772 9.29735 58.8882 9.31889 58.9909 9.34872V11.4616C58.8749 11.4219 58.7225 11.3904 58.5336 11.3672C58.348 11.344 58.1822 11.3324 58.0364 11.3324C57.748 11.3324 57.4879 11.397 57.2559 11.5263C57.0272 11.6522 56.8465 11.8295 56.714 12.0582C56.5847 12.2836 56.5201 12.5488 56.5201 12.8537V17H54.089ZM59.9815 19.8636V9.36364H62.3878V10.6712H62.4624C62.5618 10.4392 62.7027 10.2154 62.8849 10C63.0705 9.78456 63.3059 9.6089 63.5909 9.47301C63.8793 9.33381 64.224 9.2642 64.625 9.2642C65.1553 9.2642 65.6508 9.40341 66.1115 9.68182C66.5755 9.96023 66.95 10.3894 67.2351 10.9695C67.5201 11.5495 67.6626 12.2886 67.6626 13.1868C67.6626 14.0518 67.5251 14.776 67.25 15.3594C66.9782 15.9427 66.6103 16.3802 66.1463 16.6719C65.6856 16.9635 65.1735 17.1094 64.6101 17.1094C64.2256 17.1094 63.8925 17.0464 63.6108 16.9205C63.3291 16.7945 63.0921 16.6288 62.8999 16.4233C62.7109 16.2178 62.5651 15.9974 62.4624 15.7621H62.4126V19.8636H59.9815ZM62.3629 13.1818C62.3629 13.5928 62.4176 13.9508 62.527 14.2557C62.6397 14.5606 62.8004 14.7976 63.0092 14.9666C63.2214 15.1323 63.4749 15.2152 63.7699 15.2152C64.0682 15.2152 64.3217 15.1323 64.5305 14.9666C64.7393 14.7976 64.8968 14.5606 65.0028 14.2557C65.1122 13.9508 65.1669 13.5928 65.1669 13.1818C65.1669 12.7708 65.1122 12.4145 65.0028 12.1129C64.8968 11.8113 64.7393 11.5777 64.5305 11.4119C64.325 11.2462 64.0715 11.1634 63.7699 11.1634C63.4716 11.1634 63.218 11.2446 63.0092 11.407C62.8004 11.5694 62.6397 11.8014 62.527 12.103C62.4176 12.4046 62.3629 12.7642 62.3629 13.1818ZM77.7413 10.1293H76.1902C76.1305 9.79782 76.0195 9.50615 75.8571 9.25426C75.6947 9.00237 75.4958 8.78859 75.2605 8.61293C75.0252 8.43726 74.7617 8.30469 74.47 8.2152C74.1816 8.12571 73.8751 8.08097 73.5502 8.08097C72.9636 8.08097 72.4383 8.22846 71.9743 8.52344C71.5136 8.81842 71.149 9.25095 70.8805 9.82102C70.6154 10.3911 70.4828 11.0871 70.4828 11.9091C70.4828 12.7377 70.6154 13.437 70.8805 14.0071C71.149 14.5772 71.5152 15.008 71.9792 15.2997C72.4432 15.5914 72.9653 15.7372 73.5453 15.7372C73.8668 15.7372 74.1717 15.6941 74.46 15.608C74.7517 15.5185 75.0152 15.3875 75.2505 15.2152C75.4859 15.0429 75.6847 14.8324 75.8471 14.5838C76.0128 14.3319 76.1272 14.0436 76.1902 13.7188L77.7413 13.7237C77.6584 14.2242 77.4977 14.6849 77.2591 15.1058C77.0237 15.5234 76.7205 15.8847 76.3493 16.1896C75.9814 16.4912 75.5604 16.7249 75.0865 16.8906C74.6125 17.0563 74.0955 17.1392 73.5353 17.1392C72.6537 17.1392 71.8682 16.9304 71.1788 16.5128C70.4894 16.0919 69.9458 15.4903 69.5481 14.7081C69.1537 13.9259 68.9565 12.9929 68.9565 11.9091C68.9565 10.822 69.1554 9.88897 69.5531 9.11008C69.9508 8.32789 70.4944 7.72798 71.1838 7.31037C71.8732 6.88944 72.657 6.67898 73.5353 6.67898C74.0756 6.67898 74.5794 6.75687 75.0467 6.91264C75.5173 7.0651 75.9399 7.29048 76.3145 7.58878C76.689 7.88376 76.9989 8.24503 77.2441 8.67258C77.4894 9.09683 77.6551 9.58239 77.7413 10.1293ZM82.6768 17.1541C81.9609 17.1541 81.3362 16.9901 80.8026 16.6619C80.2689 16.3338 79.8546 15.8748 79.5597 15.2848C79.2647 14.6948 79.1172 14.0054 79.1172 13.2166C79.1172 12.4245 79.2647 11.7318 79.5597 11.1385C79.8546 10.5452 80.2689 10.0845 80.8026 9.75639C81.3362 9.42827 81.9609 9.2642 82.6768 9.2642C83.3928 9.2642 84.0175 9.42827 84.5511 9.75639C85.0848 10.0845 85.4991 10.5452 85.794 11.1385C86.089 11.7318 86.2365 12.4245 86.2365 13.2166C86.2365 14.0054 86.089 14.6948 85.794 15.2848C85.4991 15.8748 85.0848 16.3338 84.5511 16.6619C84.0175 16.9901 83.3928 17.1541 82.6768 17.1541ZM82.6818 15.9062C83.1458 15.9062 83.5303 15.7836 83.8352 15.5384C84.1402 15.2931 84.3655 14.9666 84.5114 14.5589C84.6605 14.1513 84.7351 13.7022 84.7351 13.2116C84.7351 12.7244 84.6605 12.277 84.5114 11.8693C84.3655 11.4583 84.1402 11.1286 83.8352 10.88C83.5303 10.6314 83.1458 10.5071 82.6818 10.5071C82.2145 10.5071 81.8267 10.6314 81.5185 10.88C81.2135 11.1286 80.9865 11.4583 80.8374 11.8693C80.6915 12.277 80.6186 12.7244 80.6186 13.2116C80.6186 13.7022 80.6915 14.1513 80.8374 14.5589C80.9865 14.9666 81.2135 15.2931 81.5185 15.5384C81.8267 15.7836 82.2145 15.9062 82.6818 15.9062ZM87.8958 17V9.36364H89.3226V10.6065H89.4171C89.5762 10.1856 89.8364 9.85748 90.1976 9.62216C90.5589 9.38352 90.9914 9.2642 91.4952 9.2642C92.0056 9.2642 92.4332 9.38352 92.7779 9.62216C93.1259 9.8608 93.3828 10.1889 93.5485 10.6065H93.628C93.8103 10.1989 94.1003 9.87405 94.498 9.6321C94.8958 9.38684 95.3697 9.2642 95.9199 9.2642C96.6126 9.2642 97.1777 9.4813 97.6152 9.91548C98.056 10.3497 98.2765 11.0043 98.2765 11.8793V17H96.79V12.0185C96.79 11.5014 96.6491 11.1269 96.3674 10.8949C96.0856 10.6629 95.7492 10.5469 95.3581 10.5469C94.8742 10.5469 94.498 10.696 94.2296 10.9943C93.9611 11.2893 93.8269 11.6688 93.8269 12.1328V17H92.3453V11.924C92.3453 11.5097 92.2161 11.1766 91.9576 10.9247C91.699 10.6728 91.3626 10.5469 90.9483 10.5469C90.6666 10.5469 90.4064 10.6214 90.1678 10.7706C89.9325 10.9164 89.7419 11.1203 89.5961 11.3821C89.4535 11.6439 89.3823 11.9472 89.3823 12.2919V17H87.8958ZM100.269 17V9.36364H101.696V10.6065H101.79C101.949 10.1856 102.209 9.85748 102.571 9.62216C102.932 9.38352 103.364 9.2642 103.868 9.2642C104.379 9.2642 104.806 9.38352 105.151 9.62216C105.499 9.8608 105.756 10.1889 105.922 10.6065H106.001C106.183 10.1989 106.473 9.87405 106.871 9.6321C107.269 9.38684 107.743 9.2642 108.293 9.2642C108.986 9.2642 109.551 9.4813 109.988 9.91548C110.429 10.3497 110.65 11.0043 110.65 11.8793V17H109.163V12.0185C109.163 11.5014 109.022 11.1269 108.74 10.8949C108.459 10.6629 108.122 10.5469 107.731 10.5469C107.247 10.5469 106.871 10.696 106.603 10.9943C106.334 11.2893 106.2 11.6688 106.2 12.1328V17H104.718V11.924C104.718 11.5097 104.589 11.1766 104.331 10.9247C104.072 10.6728 103.736 10.5469 103.321 10.5469C103.04 10.5469 102.779 10.6214 102.541 10.7706C102.306 10.9164 102.115 11.1203 101.969 11.3821C101.827 11.6439 101.755 11.9472 101.755 12.2919V17H100.269ZM115.933 17.1541C115.181 17.1541 114.533 16.9934 113.989 16.6719C113.449 16.3471 113.031 15.8913 112.736 15.3047C112.445 14.7147 112.299 14.0237 112.299 13.2315C112.299 12.4493 112.445 11.7599 112.736 11.1634C113.031 10.5668 113.442 10.1011 113.969 9.76633C114.5 9.43158 115.119 9.2642 115.829 9.2642C116.26 9.2642 116.677 9.33546 117.081 9.47798C117.486 9.6205 117.849 9.84422 118.17 10.1491C118.492 10.4541 118.745 10.8501 118.931 11.3374C119.117 11.8213 119.209 12.4096 119.209 13.1023V13.6293H113.139V12.5156H117.753C117.753 12.1245 117.673 11.7782 117.514 11.4766C117.355 11.1716 117.131 10.9313 116.843 10.7557C116.558 10.58 116.223 10.4922 115.839 10.4922C115.421 10.4922 115.056 10.5949 114.745 10.8004C114.437 11.0026 114.198 11.2678 114.029 11.5959C113.863 11.9207 113.78 12.2737 113.78 12.6548V13.5249C113.78 14.0353 113.87 14.4695 114.049 14.8274C114.231 15.1854 114.485 15.4588 114.809 15.6477C115.134 15.8333 115.514 15.9261 115.948 15.9261C116.23 15.9261 116.487 15.8864 116.719 15.8068C116.951 15.724 117.151 15.6013 117.32 15.4389C117.489 15.2765 117.618 15.076 117.708 14.8374L119.115 15.0909C119.002 15.5052 118.8 15.8681 118.508 16.1797C118.22 16.4879 117.857 16.7282 117.42 16.9006C116.985 17.0696 116.49 17.1541 115.933 17.1541ZM122.345 12.4659V17H120.859V9.36364H122.286V10.6065H122.38C122.556 10.2022 122.831 9.87737 123.205 9.6321C123.583 9.38684 124.059 9.2642 124.632 9.2642C125.152 9.2642 125.608 9.37358 125.999 9.59233C126.39 9.80777 126.694 10.1293 126.909 10.5568C127.125 10.9844 127.232 11.513 127.232 12.1428V17H125.746V12.3217C125.746 11.7682 125.602 11.3357 125.313 11.0241C125.025 10.7093 124.629 10.5518 124.125 10.5518C123.78 10.5518 123.474 10.6264 123.205 10.7756C122.94 10.9247 122.73 11.1435 122.574 11.4318C122.421 11.7169 122.345 12.0616 122.345 12.4659ZM132.79 9.36364V10.5568H128.619V9.36364H132.79ZM129.738 7.53409H131.224V14.7578C131.224 15.0462 131.268 15.2633 131.354 15.4091C131.44 15.5516 131.551 15.6494 131.687 15.7024C131.826 15.7521 131.977 15.777 132.139 15.777C132.259 15.777 132.363 15.7687 132.452 15.7521C132.542 15.7356 132.612 15.7223 132.661 15.7124L132.93 16.9403C132.844 16.9735 132.721 17.0066 132.562 17.0398C132.403 17.0762 132.204 17.0961 131.965 17.0994C131.574 17.1061 131.21 17.0365 130.871 16.8906C130.533 16.7448 130.26 16.5194 130.051 16.2145C129.842 15.9096 129.738 15.5268 129.738 15.0661V7.53409Z" fill="white"/>
  </g>
</svg>